<?xml version="1.0" standalone="no"?>
<!DOCTYPE svg PUBLIC "-//W3C//DTD SVG 20010904//EN"
 "http://www.w3.org/TR/2001/REC-SVG-20010904/DTD/svg10.dtd">
<svg version="1.0" xmlns="http://www.w3.org/2000/svg"
 width="508.000000pt" height="508.000000pt" viewBox="0 0 508.000000 508.000000"
 preserveAspectRatio="xMidYMid meet">
<metadata>
Created by potrace 1.14, written by Peter Selinger 2001-2017
</metadata>
<g transform="translate(0.000000,508.000000) scale(0.100000,-0.100000)"
fill="#000000" stroke="none">
<path d="M2327 4894 c-1 -1 -40 -5 -87 -9 -47 -3 -101 -10 -120 -15 -19 -5
-53 -12 -75 -16 -253 -38 -595 -173 -815 -321 -19 -12 -53 -35 -75 -50 -22
-14 -42 -30 -45 -34 -3 -4 -22 -19 -43 -33 -67 -46 -260 -231 -339 -326 -20
-25 -50 -61 -66 -80 -57 -67 -173 -256 -232 -375 -98 -197 -159 -385 -200
-613 -30 -167 -34 -217 -34 -397 1 -189 4 -221 50 -470 34 -190 113 -394 255
-662 l22 -41 119 119 c129 129 128 126 88 194 -10 17 -30 59 -45 95 -15 36
-33 79 -40 95 -25 57 -68 211 -78 282 -3 17 -7 36 -10 40 -3 5 -11 47 -17 93
-27 188 -15 532 20 626 5 13 8 24 6 24 -3 0 8 49 24 108 34 130 99 300 152
395 21 38 38 72 38 74 0 9 128 194 162 234 13 15 41 48 63 74 33 40 143 150
188 190 93 81 237 179 361 244 90 48 298 135 346 145 14 3 70 16 125 30 55 13
121 27 148 30 26 3 68 9 95 12 60 8 321 8 387 0 28 -3 70 -9 95 -12 76 -9 319
-75 394 -106 112 -46 117 -48 186 -83 96 -49 109 -57 173 -99 98 -63 208 -150
290 -229 l78 -74 -210 -209 c-116 -115 -710 -708 -1322 -1319 l-1111 -1109 34
-31 c76 -68 154 -126 238 -177 30 -18 64 -38 75 -45 104 -63 358 -163 480
-189 144 -31 268 -42 425 -39 243 6 366 26 572 96 114 38 339 152 418 211 283
211 467 420 590 673 24 50 49 102 56 116 15 30 34 85 73 212 31 100 56 254 66
400 l6 87 -156 0 -155 0 -1 -57 c0 -32 -2 -69 -5 -83 -2 -14 -9 -56 -15 -95
-18 -113 -47 -220 -91 -328 -22 -56 -44 -106 -49 -112 -4 -5 -22 -37 -40 -70
-76 -142 -272 -360 -408 -456 -206 -144 -421 -237 -616 -264 -68 -10 -99 -15
-129 -21 -16 -4 -79 -6 -140 -6 -237 1 -511 70 -704 178 -74 42 -82 22 70 173
53 53 632 629 1287 1280 l1190 1184 -19 21 c-10 12 -42 50 -70 86 -129 164
-341 354 -544 486 -61 41 -275 150 -346 177 -112 43 -206 77 -226 82 -10 2
-48 11 -84 20 -57 14 -143 32 -245 50 -71 12 -428 28 -438 19z"/>
<path d="M2240 4419 c-151 -23 -204 -34 -305 -66 -132 -41 -124 -38 -256 -101
-99 -47 -237 -126 -249 -141 -3 -4 -21 -18 -40 -31 -58 -39 -151 -121 -213
-185 -84 -87 -177 -196 -177 -206 0 -3 -16 -26 -35 -50 -19 -24 -35 -48 -35
-52 0 -5 -10 -22 -21 -39 -38 -53 -118 -225 -149 -320 -17 -51 -33 -100 -37
-108 -3 -8 -8 -24 -10 -35 -2 -11 -8 -36 -13 -55 -5 -19 -11 -53 -15 -75 -3
-23 -7 -52 -10 -65 -3 -14 -8 -65 -11 -115 -11 -163 -29 -145 146 -145 113 0
150 3 151 13 0 6 2 41 4 77 1 36 10 103 20 150 9 47 19 96 21 110 32 164 143
397 265 558 68 89 207 225 299 293 112 82 177 119 305 173 229 98 500 140 731
114 182 -21 478 -115 586 -186 l28 -18 -780 -780 c-1453 -1451 -1815 -1814
-1818 -1823 -2 -5 3 -15 10 -22 7 -8 29 -34 48 -59 99 -126 273 -297 413 -404
220 -168 540 -322 802 -387 72 -18 238 -48 355 -63 52 -7 368 -7 420 -1 19 3
60 9 90 15 30 5 72 11 92 14 21 3 57 10 80 15 24 6 57 12 74 15 93 17 385 128
502 193 23 12 61 34 85 46 44 25 198 127 207 138 3 3 23 19 45 35 69 50 178
146 215 189 14 16 42 47 63 70 69 72 93 99 122 140 16 22 32 42 35 45 3 3 31
43 61 90 51 78 67 103 119 195 73 128 186 441 206 565 3 19 7 41 9 48 7 18 36
217 41 272 5 60 4 305 -1 355 -2 22 -7 58 -11 80 -8 52 -11 72 -19 120 -36
242 -116 466 -265 743 l-28 53 -122 -120 -122 -121 45 -92 c81 -165 119 -278
164 -492 25 -120 27 -150 28 -351 0 -229 -4 -263 -57 -485 -28 -117 -106 -317
-165 -425 -47 -87 -152 -251 -176 -277 -7 -7 -34 -40 -62 -73 -77 -92 -195
-205 -280 -268 -27 -20 -55 -41 -61 -46 -6 -5 -46 -32 -89 -60 -171 -111 -421
-216 -600 -252 -101 -20 -221 -40 -265 -44 -67 -6 -320 -6 -360 1 -113 17
-273 47 -324 60 -136 35 -363 133 -494 213 -84 51 -238 170 -323 250 l-87 81
1322 1321 c1218 1218 1320 1322 1302 1334 -10 8 -32 27 -50 42 -47 44 -140
110 -225 163 -201 123 -401 195 -681 245 -55 10 -409 13 -470 4z"/>
</g>
</svg>
