<svg xmlns="http://www.w3.org/2000/svg" viewBox="0 0 188 25.43"><g id="Lager_2" data-name="Lager 2"><g id="Lager_1-2" data-name="Lager 1"><path d="M19.05.49H.31V4.81h12L0,22.22v2.65H19.05V20.52H6.41L19.05,2.65Z"/><path d="M28.84.49V24.87h4.57V.49Z"/><path d="M44.38.49V4.67h7.73v20.2h4.6V4.67h7.73V.49Z"/><path d="M72.77.49V4.67H80.5v20.2h4.6V4.67h7.73V.49Z"/><path d="M116.83,16.23c4.64-.94,6.17-4.32,6.17-7.66,0-4.21-3-8-8.78-8.08-3.86,0-7.73,0-11.6,0V4.77h11.6a3.82,3.82,0,0,1,4.18,3.9,3.8,3.8,0,0,1-4.18,3.9h-11.6v12.3h4.6V16.72h4.42l7.11,8.15h5.47v-.31Z"/><path d="M144.53,0C136.1,0,132,6.44,132,12.86s4,12.57,12.54,12.57S157,19.12,157,12.82,152.92,0,144.53,0Zm0,21.21c-5.75,0-7.91-4.28-8-8.29s2.27-8.74,8-8.74,8,4.6,8,8.71S150.27,21.21,144.53,21.21Z"/><path d="M183.41.45V15.61L171.45.49h-3.72V24.87h4.6V8.43L185.15,24.9v0H188V.45Z"/></g></g></svg>