<svg width="1189" height="1024" viewBox="0 0 1189 1024" fill="none" xmlns="http://www.w3.org/2000/svg">
<path d="M656.842 385.383L656.818 385.347L656.792 385.312C655.128 383.066 652.08 381.201 648.741 380.277C645.379 379.346 641.466 379.297 638.054 381.015L638.038 381.023L638.022 381.032C635.679 382.284 634.108 384.151 632.993 385.476L632.948 385.53L632.883 385.607L632.829 385.692C628.217 392.963 627.195 401.399 630.851 408.536C634.219 415.416 633.554 422.609 632.657 430.405C632.625 430.681 632.593 430.958 632.561 431.236C631.701 438.674 630.779 446.641 633.829 454.593C634.536 456.52 635.022 459.315 635.605 462.67C635.727 463.373 635.854 464.102 635.988 464.852C636.742 469.077 637.707 473.839 639.452 478.122C641.199 482.408 643.784 486.358 647.867 488.799C651.977 491.256 657.372 492.045 664.445 490.465C674.6 488.254 679.487 480.422 679.255 473.466C679.285 470.99 678.897 468.509 678.535 466.195C678.42 465.462 678.308 464.745 678.213 464.05C677.803 461.063 677.661 458.316 678.539 455.602C679.146 453.735 680.269 451.848 681.692 449.882C682.709 448.477 683.828 447.096 684.979 445.677C685.448 445.098 685.923 444.512 686.399 443.916C689.55 439.96 692.774 435.499 692.71 430.534C692.739 426.725 690.875 423.528 688.246 420.765C685.625 418.012 682.101 415.542 678.528 413.181C677.738 412.659 676.946 412.143 676.158 411.629C673.326 409.782 670.541 407.966 668.068 406.036C664.908 403.571 662.446 401.057 661.163 398.31C660.399 396.638 660.005 394.885 659.576 392.973C659.511 392.686 659.446 392.396 659.378 392.101C658.876 389.911 658.257 387.545 656.842 385.383Z" stroke="#527D77" stroke-width="3" stroke-miterlimit="10"/>
<path d="M717.317 435.491L717.319 435.483L717.322 435.476C719.167 430.435 719.801 425.26 717.281 419.969L717.276 419.961C714.616 414.468 709.101 410.05 703.169 406.323C699.398 403.953 695.272 401.758 691.455 399.727C689.295 398.578 687.234 397.482 685.392 396.436C684.431 395.876 683.464 395.32 682.497 394.764C678.966 392.734 675.438 390.705 672.169 388.482C668.013 385.656 664.401 382.595 661.883 378.986L661.876 378.975L661.868 378.965C660.898 377.623 660.196 376.241 659.437 374.483L659.432 374.473L659.428 374.463C658.486 372.367 657.949 370.204 657.375 367.889C657.166 367.047 656.952 366.185 656.712 365.298C655.837 362.069 654.642 358.713 652.007 355.705C649.093 352.149 643.511 349.296 637.35 347.906C631.208 346.52 624.188 346.516 618.15 348.946C617.961 348.975 617.687 349.043 617.428 349.202C617.222 349.328 617.079 349.472 616.998 349.559C616.995 349.562 616.993 349.564 616.99 349.567C613.026 351.55 610.323 354.063 608.284 356.837C600.759 366.492 597.77 378.173 602.013 389.333C602.343 390.3 602.399 390.977 602.236 391.991L602.222 392.08L602.218 392.17C602.091 395.468 600.647 398.933 599.065 402.732C599.004 402.879 598.942 403.027 598.88 403.175C597.29 406.996 595.597 411.182 595.779 415.301L595.779 415.303C596.146 423.288 598.407 430.91 600.806 438.418C601.052 439.188 601.3 439.956 601.547 440.724C603.726 447.493 605.886 454.202 606.907 461.253C607.587 466.75 608.979 472.651 610.443 478.856C611.215 482.129 612.007 485.486 612.725 488.914C612.945 490.065 612.812 491.513 612.427 493.252C612.11 494.684 611.654 496.19 611.175 497.773C611.073 498.111 610.969 498.453 610.866 498.798C610.29 500.718 609.722 502.735 609.459 504.658C609.197 506.575 609.216 508.551 609.951 510.331L609.952 510.332C612.725 517.022 618.807 521.508 625.862 524.423C632.934 527.345 641.183 528.777 648.654 529.24L648.671 529.241L648.689 529.242C653.826 529.44 659.206 528.974 664.826 527.856C681.854 524.466 693.812 512.423 692.837 497.17C692.698 494.64 692.427 492.19 692.156 489.833C692.132 489.624 692.108 489.415 692.084 489.208C691.837 487.06 691.599 484.998 691.459 482.97C691.153 478.532 691.332 474.4 692.874 470.339L692.888 470.301L692.9 470.263C694.039 466.696 696.381 463.232 699.452 459.582L699.462 459.57L699.471 459.558C701.142 457.489 702.88 455.486 704.61 453.505C704.762 453.332 704.913 453.158 705.065 452.985C706.636 451.187 708.196 449.401 709.66 447.621C712.861 443.731 715.703 439.757 717.317 435.491Z" stroke="#527D77" stroke-width="3" stroke-miterlimit="10"/>
<path d="M741.911 439.786L741.914 439.78C745.477 433.107 747.911 425.57 744.857 417.417C741.793 408.881 733.669 402.303 724.751 396.962C718.811 393.405 712.286 390.271 706.418 387.453C703.481 386.043 700.708 384.712 698.256 383.446C697.02 382.796 695.768 382.143 694.506 381.487C682.633 375.304 669.931 368.688 661.98 359.219L661.973 359.21C660.339 357.294 658.95 355.034 657.863 353.002C656.171 349.636 655.258 346.194 654.306 342.608C654.04 341.604 653.77 340.589 653.48 339.561C652.172 334.93 650.468 330.211 646.624 325.905C642.492 321.04 634.388 317.166 625.396 315.326C616.42 313.488 606.228 313.607 597.636 317.032C597.459 317.055 597.21 317.102 596.979 317.202C596.775 317.29 596.505 317.449 596.28 317.731C590.317 320.509 586.513 324.019 583.382 327.74L583.375 327.748L583.369 327.756C573.005 340.419 567.822 356.341 573.699 372.083C574.013 373.207 573.903 374.447 573.47 375.874L573.466 375.887L573.463 375.9C572.868 377.993 571.621 380.274 570.007 382.728C568.889 384.429 567.645 386.139 566.374 387.887C565.808 388.665 565.237 389.451 564.669 390.247C562.854 392.788 561.095 395.401 559.862 397.977C558.633 400.543 557.852 403.221 558.17 405.863C559.382 416.36 564.279 426.135 569.041 435.64C569.254 436.065 569.467 436.49 569.679 436.915C574.688 446.93 579.373 456.692 579.976 467.198L579.976 467.207C580.416 474.16 581.799 481.002 583.453 487.94C584.034 490.38 584.647 492.822 585.264 495.286C586.413 499.869 587.581 504.528 588.606 509.394C588.931 511.039 588.517 513.248 587.54 515.968C586.678 518.372 585.459 520.962 584.199 523.643C584.051 523.959 583.902 524.275 583.753 524.593C582.359 527.566 580.958 530.636 580.117 533.475C579.287 536.277 578.907 539.151 579.896 541.596L579.901 541.609L579.907 541.621C584.077 551.411 594.149 557.325 605.497 560.959C616.896 564.61 629.95 566.08 640.647 566.725C648.675 567.309 657.15 566.255 665.466 564.914L665.488 564.911L665.51 564.907C689.549 560.299 708.091 544.301 706.677 520.303L706.677 520.298C706.47 516.995 706.12 513.785 705.781 510.683L705.759 510.48C705.412 507.302 705.082 504.243 704.92 501.245C704.597 495.265 704.951 489.639 707.138 484.118C709.152 479.413 712.067 474.625 716.217 470.025L716.226 470.015L716.235 470.004C719.113 466.693 722.129 463.558 725.127 460.441C726.844 458.656 728.556 456.877 730.232 455.074C734.782 450.182 738.992 445.193 741.911 439.786Z" stroke="#527D77" stroke-width="3" stroke-miterlimit="10"/>
<path d="M720.512 543.366C720.277 541.116 720.027 538.917 719.781 536.764C718.148 522.443 716.743 510.13 721.751 498.146C724.264 492.182 728.013 486.385 733.617 480.396L733.637 480.374L733.656 480.352C737.694 475.681 742.138 471.252 746.593 466.81C748.036 465.372 749.479 463.934 750.911 462.485C756.728 456.597 762.317 450.573 766.531 443.995L766.536 443.988C771.816 435.641 775.962 425.46 772.741 415.091L772.738 415.082C769.136 403.74 758.454 395.022 746.622 387.983C738.816 383.339 730.252 379.289 722.614 375.677C718.682 373.818 714.995 372.075 711.783 370.426C709.08 369.037 706.299 367.659 703.482 366.263C697.545 363.32 691.448 360.297 685.577 356.933C676.946 351.986 668.987 346.395 663.081 339.469L663.061 339.445L663.04 339.423C660.759 336.96 659.023 334.138 657.205 331.169C654.777 326.681 653.544 322.027 652.265 317.198C651.947 315.996 651.625 314.783 651.282 313.559C649.575 307.475 647.352 301.3 642.127 295.696C636.652 289.722 626.059 284.9 614.225 282.567C602.385 280.232 588.982 280.322 577.648 284.466C577.448 284.51 577.284 284.578 577.167 284.634C577.013 284.707 576.875 284.792 576.812 284.831L576.793 284.833L576.591 284.912C568.144 288.227 562.752 293.227 558.687 298.058C545.184 314.104 538.117 333.959 545.652 353.976L545.665 354.01L545.679 354.042C545.907 354.57 545.952 355.254 545.795 356.18C545.639 357.097 545.319 358.086 544.948 359.207C543.799 361.811 541.716 364.628 539.148 367.622C537.497 369.547 535.709 371.475 533.894 373.431C532.856 374.55 531.81 375.679 530.774 376.822C527.973 379.916 525.297 383.075 523.421 386.179C521.557 389.263 520.352 392.504 520.813 395.707L520.814 395.716L520.815 395.725C522.803 408.471 529.942 420.322 536.911 431.89C537.455 432.793 537.998 433.694 538.537 434.593C546.071 447.162 552.939 459.484 553.337 472.879L553.337 472.89C553.691 482.528 555.597 491.764 557.923 501.068C558.693 504.146 559.505 507.221 560.324 510.321C561.993 516.638 563.69 523.059 565.105 529.816C565.548 532.013 564.826 535.009 563.253 538.685C561.864 541.935 559.929 545.459 557.94 549.082C557.711 549.499 557.481 549.917 557.251 550.337C555.053 554.353 552.856 558.465 551.492 562.236C550.149 565.951 549.473 569.7 550.782 572.809C556.168 585.675 570.186 593.028 585.844 597.402C601.586 601.798 619.473 603.317 633.275 604.157L633.276 604.157C644.08 604.808 655.351 603.835 666.489 601.618C682.038 598.699 696.364 592.243 706.409 582.453C716.493 572.624 722.219 559.464 720.512 543.366ZM720.512 543.366C720.512 543.367 720.512 543.367 720.512 543.368L719.021 543.523L720.512 543.365C720.512 543.366 720.512 543.366 720.512 543.366Z" stroke="#527D77" stroke-width="3" stroke-miterlimit="10"/>
<path d="M791.176 448.157L791.168 448.167C785.658 455.929 778.686 462.997 771.487 469.973C770.187 471.233 768.88 472.49 767.571 473.747C761.607 479.481 755.623 485.234 750.191 491.411L750.18 491.423L750.169 491.435C743.412 498.791 738.82 505.599 735.802 512.837C729.475 528.097 731.355 543.972 733.6 562.923C733.764 564.307 733.93 565.708 734.095 567.126C736.478 587.387 729.304 603.722 716.679 615.839C704.097 627.915 686.146 635.769 666.914 639.315L666.903 639.317C653.027 641.764 638.986 643.294 625.312 642.26C625.31 642.26 625.308 642.26 625.306 642.26L625.182 642.252C608.125 641.075 585.391 639.507 565.326 634.417C545.307 629.34 527.376 620.619 520.781 604.697L520.777 604.688L520.777 604.688C519.253 600.936 520.269 596.338 522.166 591.707C524.092 587.005 527.108 581.852 530.131 576.792C530.409 576.327 530.686 575.864 530.963 575.401C533.731 570.777 536.437 566.258 538.385 562.111C540.56 557.481 541.605 553.68 541.038 550.908L541.037 550.9C539.33 542.329 537.105 534.172 534.898 526.082C533.921 522.502 532.948 518.936 532.025 515.352C529.029 503.721 526.595 492.017 526.469 479.528L526.469 479.517C526.425 463.198 517.371 448.379 507.276 433.297C506.406 431.997 505.528 430.694 504.648 429.389C495.43 415.719 485.996 401.728 483.23 386.526C483.23 386.525 483.23 386.525 483.23 386.524L484.706 386.256C483.319 378.768 492.744 369.907 502.071 361.14C508.419 355.172 514.722 349.247 517.539 343.827L791.176 448.157ZM791.176 448.157C798.177 438.116 804.035 425.604 800.274 412.447C796.285 398.29 782.967 387.445 768.115 378.76C758.214 372.97 747.352 367.995 737.787 363.615C733 361.422 728.538 359.379 724.685 357.457L724.677 357.453C721.684 355.982 718.599 354.506 715.462 353.006C707.778 349.332 699.784 345.509 692.083 341.237C681.252 335.229 671.154 328.411 663.564 320.055L663.547 320.036L663.529 320.018C660.559 316.965 658.146 313.546 655.988 309.763L655.983 309.754L655.977 309.745C652.572 303.968 650.945 297.904 649.264 291.635C648.935 290.41 648.605 289.178 648.258 287.938C646.157 280.418 643.499 272.791 637.064 265.882C630.381 258.604 617.355 252.746 602.677 249.958C587.988 247.167 571.327 247.386 557.128 252.553C556.93 252.597 556.772 252.663 556.668 252.71C556.573 252.752 556.432 252.826 556.377 252.854L556.355 252.866C556.247 252.92 556.217 252.926 556.179 252.929L555.964 252.948L555.763 253.026C545.214 257.141 538.664 263.168 533.744 269.013C517.076 288.133 508.184 312.191 517.344 336.743C517.955 338.543 517.481 340.282 516.188 343.173L791.176 448.157Z" stroke="#527D77" stroke-width="3" stroke-miterlimit="10"/>
<path d="M815.817 452.32L815.825 452.308C824.838 440.223 832.074 425.418 828.143 410.086L828.139 410.073C823.593 392.984 807.743 380.011 789.938 369.705C777.783 362.669 764.436 356.731 752.79 351.549C747.367 349.137 742.314 346.888 737.921 344.77C733.601 342.658 729.106 340.559 724.523 338.418C716.055 334.462 707.287 330.366 698.766 325.799C685.665 318.776 673.364 310.744 664.072 300.669C660.688 296.974 657.601 292.969 655.102 288.629L655.095 288.616L655.087 288.603C650.925 281.698 648.982 274.413 646.974 266.883C646.59 265.444 646.205 263.998 645.8 262.543C643.298 253.532 640.118 244.39 632.309 236.038C624.436 227.617 608.903 220.729 591.338 217.449C573.767 214.167 553.838 214.433 536.919 220.613C536.747 220.65 536.603 220.7 536.514 220.733C536.371 220.786 536.225 220.849 536.122 220.893L536.108 220.899C536.066 220.917 536.031 220.932 536 220.946C535.946 220.969 535.905 220.985 535.87 220.999L535.753 221.009L535.553 221.086C522.887 226.008 515.184 233.07 509.118 239.932L509.116 239.934C489.6 262.092 478.581 290.697 489.347 319.487C490.002 321.613 489.541 323.99 487.48 327.075L487.464 327.099L487.449 327.123C485.245 330.713 481.427 334.635 476.853 338.788C474.22 341.178 471.424 343.57 468.595 345.991C466.484 347.797 464.355 349.619 462.261 351.467C457.436 355.728 452.903 360.045 449.772 364.246C446.675 368.399 444.703 372.763 445.62 377.019C449.313 394.748 461.053 410.958 472.527 426.799C473.694 428.411 474.859 430.02 476.013 431.626C488.626 449.187 499.881 466.445 499.859 485.539C499.744 500.71 502.619 514.802 506.288 528.8C507.534 533.555 508.866 538.283 510.206 543.036C512.828 552.338 515.478 561.739 517.565 571.644C518.255 575.003 516.877 579.616 514.102 585.191C511.594 590.231 508.115 595.742 504.566 601.361C504.243 601.874 503.918 602.388 503.594 602.902C499.745 609.007 495.912 615.203 493.426 620.836C490.975 626.388 489.631 631.826 491.367 636.207L491.373 636.221L491.379 636.235C499.333 655.172 521.153 665.343 545.47 671.137C569.244 676.802 595.983 678.414 616.009 679.622C616.555 679.655 617.097 679.687 617.634 679.72C634.11 680.821 650.93 679.053 667.575 676.056L667.579 676.055C690.337 671.895 711.838 662.725 726.923 648.447C742.055 634.125 750.682 614.694 747.624 590.273L747.524 589.469C744.524 565.37 742.072 545.674 750.076 526.59C753.636 518.357 759.055 510.23 766.955 501.853L766.96 501.848L766.965 501.843C773.408 494.874 780.397 488.373 787.369 481.887C788.988 480.381 790.607 478.875 792.218 477.364C800.735 469.377 809.011 461.27 815.817 452.32Z" stroke="#527D77" stroke-width="3" stroke-miterlimit="10"/>
<path d="M840.48 456.45L840.483 456.446C851.203 442.678 860.459 425.511 855.978 407.391L855.977 407.39C851.043 387.509 832.654 372.407 811.903 360.446C797.603 352.204 781.889 345.302 768.287 339.328C762.133 336.625 756.412 334.112 751.449 331.751L751.442 331.748C747.263 329.784 742.945 327.812 738.545 325.804C727.821 320.909 716.618 315.795 705.785 310.029C690.526 301.908 676.158 292.569 665.168 280.916L665.163 280.911C661.117 276.658 657.334 271.782 654.473 266.85L654.466 266.839L654.459 266.827C649.521 258.654 647.199 250.064 644.824 241.278C644.378 239.629 643.931 237.972 643.464 236.311C640.526 225.861 636.839 215.356 627.837 205.859C618.756 196.136 600.714 188.22 580.27 184.449C559.822 180.678 536.641 180.99 517.001 188.017C516.558 188.086 516.223 188.23 516.024 188.317L515.997 188.328C515.772 188.425 515.746 188.429 515.703 188.432L515.489 188.451L515.289 188.528C500.512 194.254 491.655 202.348 484.44 210.231L484.432 210.239L484.424 210.248C461.767 235.795 448.886 268.32 461.293 301.363L461.298 301.376L461.303 301.388C462.202 303.657 461.351 306.614 458.907 310.187L458.902 310.195C456.122 314.316 451.434 318.809 445.885 323.539C442.679 326.272 439.269 329.017 435.828 331.787C433.292 333.828 430.739 335.883 428.238 337.958C422.411 342.791 416.952 347.659 413.152 352.362C409.401 357.003 406.966 361.845 407.919 366.531L407.922 366.543L407.925 366.556C410.402 377.743 415.829 388.352 422.484 398.632C427.809 406.859 433.969 414.945 440.085 422.972C441.602 424.965 443.118 426.954 444.617 428.94C459.794 449.054 473.265 468.906 472.886 490.957C472.53 508.813 475.931 525.365 480.271 541.724C481.679 547.03 483.18 552.3 484.686 557.587C487.841 568.662 491.016 579.806 493.39 591.492L493.391 591.497C493.791 593.433 493.584 595.767 492.815 598.486C492.048 601.196 490.751 604.192 489.079 607.406C486.044 613.237 481.867 619.615 477.612 626.111C477.167 626.791 476.72 627.472 476.275 628.154C471.6 635.304 466.966 642.545 463.977 649.111C461.03 655.586 459.46 661.867 461.584 666.866C466.17 677.869 474.933 686.264 486.08 692.712C497.223 699.156 510.829 703.703 525.26 706.988C552.156 713.11 582.198 714.904 605.034 716.267C606.694 716.367 608.315 716.463 609.895 716.559L609.895 716.559C629.175 717.73 649.083 715.697 668.198 712.488L668.208 712.487L668.218 712.485C694.503 707.71 719.554 697.224 737.179 680.742C754.853 664.213 765.011 641.686 761.439 613.096L761.438 613.088C757.764 584.942 754.929 562.234 764.354 540.333L764.355 540.33C768.429 530.803 774.668 521.363 783.716 511.959L783.725 511.949C791.256 503.983 799.523 496.596 807.792 489.207C809.507 487.674 811.221 486.142 812.929 484.605C822.846 475.679 832.525 466.593 840.48 456.45Z" stroke="#527D77" stroke-width="3" stroke-miterlimit="10"/>
<path d="M865.139 460.586L865.145 460.577C877.586 445.109 888.505 425.304 883.53 405.031C878.19 382.209 857.274 365.06 833.543 351.524C817.46 342.352 799.783 334.685 784.397 328.013C777.068 324.834 770.26 321.881 764.391 319.098L764.386 319.096C759.261 316.685 753.943 314.269 748.519 311.804C736.668 306.419 724.306 300.801 712.316 294.495C694.859 285.314 678.358 274.753 665.674 261.528L665.669 261.523L665.663 261.517C660.965 256.718 656.812 251.249 653.235 245.408C647.546 236.117 644.907 226.318 642.212 216.309C641.707 214.436 641.201 212.556 640.672 210.67C637.337 198.772 633.135 186.828 622.773 176.043C612.484 165.019 591.935 156.074 568.611 151.851C545.225 147.617 518.712 148.067 496.321 156.161L496.177 156.213L496.047 156.293C495.912 156.376 495.762 156.433 495.442 156.543L495.407 156.555C495.15 156.643 494.773 156.772 494.382 156.991C477.828 163.189 467.553 172.641 459.511 181.509L459.503 181.518C433.999 210.107 418.978 246.862 433.013 284.441C434.014 287.382 433.112 290.691 430.172 294.51L430.149 294.539L430.128 294.569C426.861 299.273 421.334 304.344 414.807 309.646C410.965 312.767 406.86 315.903 402.725 319.062C399.821 321.28 396.902 323.51 394.048 325.755C387.198 331.142 380.798 336.558 376.361 341.803C371.98 346.983 369.183 352.381 370.36 357.632L370.362 357.641C373.28 370.278 379.628 382.233 387.404 393.81C393.593 403.025 400.74 412.071 407.837 421.055C409.648 423.347 411.455 425.635 413.242 427.92C430.94 450.55 446.631 472.926 446.046 497.933C445.45 518.469 449.37 537.4 454.42 556.116C456.043 562.133 457.778 568.111 459.52 574.112C463.215 586.845 466.939 599.677 469.686 613.178L469.687 613.184C470.151 615.418 469.891 618.111 468.976 621.239C468.064 624.357 466.532 627.804 464.562 631.498C460.925 638.318 455.898 645.799 450.802 653.382C450.37 654.025 449.938 654.668 449.506 655.312C444.007 663.507 438.555 671.77 435.003 679.207C433.225 682.931 431.891 686.511 431.276 689.825C430.661 693.137 430.746 696.28 431.924 699.046C437.188 711.556 447.26 721.047 460.081 728.304C472.898 735.558 488.547 740.629 505.131 744.273C534.301 750.682 566.631 752.727 591.991 754.33C595.453 754.549 598.786 754.76 601.963 754.972C624.09 756.524 646.792 754.251 668.967 750.152C698.782 744.762 727.453 732.874 747.61 714.109C767.817 695.297 779.421 669.602 775.022 636.87C771.029 605.008 767.954 579.519 778.709 555.011L778.712 555.002L778.716 554.994C783.298 544.188 790.381 533.736 800.577 522.973L800.584 522.965C809.566 513.336 819.516 504.52 829.458 495.712C830.827 494.5 832.195 493.287 833.561 492.073C844.821 482.061 855.887 471.924 865.139 460.586Z" stroke="#527D77" stroke-width="3" stroke-miterlimit="10"/>
<path d="M650.454 225.116C654.445 231.633 659.312 237.451 664.797 243.215C689.279 268.41 726.043 284.812 758.761 299.41C764.908 302.152 770.912 304.831 776.665 307.492C783.068 310.474 790.41 313.624 798.288 317.003C841.164 335.394 899.91 360.593 909.593 402.699L650.454 225.116ZM650.454 225.116C643.816 214.39 640.748 203.018 637.685 191.667C633.562 176.385 629.449 161.143 616.651 147.572L650.454 225.116ZM665.878 242.175C680.254 256.967 698.961 268.74 718.685 278.934C732.174 285.905 746.056 292.099 759.321 298.017C765.479 300.764 771.504 303.452 777.295 306.131L777.298 306.132C783.627 309.08 790.922 312.209 798.772 315.577C816.305 323.098 836.599 331.804 855.044 342.306C881.728 357.499 905.171 376.774 911.055 402.363L911.056 402.369C916.259 425.419 903.991 447.511 889.496 464.737C879.101 477.261 866.804 488.437 854.264 499.456C852.491 501.015 850.713 502.57 848.935 504.125C838.112 513.592 827.275 523.07 817.368 533.385L817.362 533.392L817.355 533.399C805.711 545.209 797.805 556.973 792.682 568.77C780.923 596.179 783.961 624.811 788.553 660.022C793.468 696.925 780.336 725.717 757.586 746.737C734.89 767.707 702.67 780.912 669.325 786.918C644.387 791.567 618.902 794.078 593.969 792.458L593.967 792.458C589.996 792.197 585.803 791.941 581.428 791.673C553.058 789.94 517.07 787.74 484.542 780.778C465.763 776.759 448.049 771.136 433.566 763.046C419.078 754.954 407.734 744.341 401.87 730.315L401.87 730.314C400.588 727.239 400.53 723.734 401.266 720.023C402.002 716.311 403.551 712.292 405.609 708.103C409.719 699.732 415.987 690.426 422.312 681.186C422.789 680.489 423.267 679.792 423.743 679.096C429.621 670.52 435.425 662.051 439.625 654.341C441.892 650.178 443.662 646.288 444.721 642.77C445.782 639.242 446.094 636.193 445.567 633.659L445.566 633.655C442.519 618.819 438.387 604.649 434.278 590.557C432.248 583.598 430.224 576.657 428.339 569.665C422.656 548.583 418.291 527.191 419.126 503.979C420.084 476.155 402.249 451.248 382.03 426.102C379.86 423.402 377.662 420.701 375.461 417.994C367.471 408.169 359.43 398.281 352.432 388.217C343.499 375.369 336.177 362.113 332.749 348.114L665.878 242.175ZM665.878 242.175C660.435 236.454 655.647 230.724 651.733 224.332L651.73 224.326C645.217 213.803 642.21 202.666 639.144 191.312C638.611 189.338 638.076 187.357 637.521 185.372C633.789 172.03 629.153 158.642 617.742 146.542L617.734 146.534C606.108 134.389 583.138 124.403 556.992 119.641C530.793 114.87 501.084 115.283 475.809 124.246L475.66 124.299L475.526 124.381C475.391 124.464 475.241 124.521 474.921 124.631L474.886 124.643C474.629 124.731 474.252 124.86 473.861 125.079C455.197 132.08 443.765 142.566 434.572 152.46L434.565 152.467L434.559 152.474C405.879 184.151 389.037 225.125 404.72 267.249L404.728 267.268L404.736 267.288C405.994 270.398 404.665 273.985 401.336 278.624C397.49 283.852 391.077 289.491 383.558 295.369C379.171 298.799 374.493 302.248 369.786 305.717C366.407 308.207 363.014 310.709 359.703 313.222C351.851 319.182 344.542 325.152 339.494 330.9C334.515 336.569 331.358 342.448 332.749 348.113L665.878 242.175Z" stroke="#527D77" stroke-width="3" stroke-miterlimit="10"/>
<path d="M455.902 92.2826L455.757 92.3348L455.624 92.4157C455.533 92.4714 455.365 92.5314 454.932 92.6574L454.873 92.6743C454.57 92.7619 454.092 92.9004 453.655 93.1383C432.883 100.941 419.983 112.482 409.926 123.402L409.919 123.41C378.104 158.47 359.433 203.658 376.706 249.706L376.708 249.713C378.026 253.17 376.689 257.418 372.84 262.326L372.835 262.332L372.831 262.338C368.407 268.091 361.122 274.279 352.629 280.712C347.719 284.43 342.494 288.168 337.24 291.925C333.385 294.683 329.515 297.451 325.743 300.23C316.906 306.742 308.698 313.256 303.026 319.523C297.43 325.707 293.9 332.09 295.414 338.231L295.415 338.236C299.282 353.683 307.523 368.285 317.577 382.43C325.441 393.493 334.47 404.351 343.444 415.142C345.936 418.139 348.423 421.13 350.88 424.119C373.618 451.779 393.682 479.215 392.516 510.005C391.455 536.048 396.338 559.815 402.728 583.217C404.827 590.903 407.082 598.532 409.345 606.186C413.992 621.905 418.67 637.731 422.092 654.386L422.093 654.39C422.684 657.225 422.318 660.63 421.111 664.56C419.906 668.479 417.9 672.81 415.337 677.442C410.607 685.99 404.085 695.382 397.484 704.889C396.923 705.697 396.361 706.506 395.8 707.316C388.668 717.6 381.612 727.948 376.986 737.251C374.671 741.906 372.931 746.364 372.106 750.473C371.28 754.581 371.348 758.444 372.775 761.822C379.238 777.36 391.851 789.072 407.997 797.97C424.139 806.866 443.906 813.004 464.857 817.362C500.351 824.744 539.507 827.067 570.625 828.912C576.229 829.245 581.573 829.562 586.587 829.89L586.594 829.89C614.335 831.579 642.602 828.829 670.319 823.942L670.323 823.941C707.354 817.307 743.128 802.784 768.323 779.571C793.574 756.306 808.145 724.348 802.703 683.128L802.702 683.124C797.483 644.242 794.512 612.79 807.605 582.769L807.608 582.763C813.24 569.685 821.992 556.909 834.781 543.742L834.786 543.736L834.792 543.73C845.807 532.151 858.072 521.507 870.393 510.813C871.918 509.49 873.444 508.166 874.968 506.839C888.783 494.815 902.468 482.588 914.161 468.866C930.378 449.937 944.307 425.203 938.606 400C932.316 371.476 906.345 350.078 876.717 333.268C856.231 321.644 833.691 312.059 814.272 303.801C805.586 300.107 797.524 296.679 790.55 293.453C783.828 290.337 776.817 287.214 769.645 284.019C755.239 277.603 740.184 270.898 725.529 263.375C703.607 252.122 682.767 239.128 666.697 222.765C660.617 216.514 655.423 209.875 650.807 202.867C643.55 191.232 640.227 178.893 636.843 166.323C636.251 164.123 635.657 161.916 635.039 159.704C630.909 144.913 625.758 130.084 612.985 116.697C600.153 103.248 574.673 92.2312 545.683 87.0135C516.639 81.7861 483.743 82.3176 455.902 92.2826Z" stroke="#527D77" stroke-width="3" stroke-miterlimit="10"/>
<path d="M966.442 397.31L966.442 397.308C959.762 365.999 931.181 342.481 898.525 323.984C876.201 311.339 851.659 300.881 830.48 291.857C820.663 287.674 811.568 283.799 803.752 280.156L803.743 280.152C796.48 276.827 788.893 273.491 781.123 270.075C765.186 263.068 748.479 255.722 732.222 247.438C708.064 235.13 685.088 220.839 667.468 202.74L667.459 202.731C660.694 195.901 654.849 188.712 650.182 180.829L650.172 180.812L650.161 180.795C642.114 167.991 638.42 154.388 634.661 140.546C634.015 138.169 633.368 135.785 632.696 133.396C628.13 117.164 622.466 100.9 608.491 86.2136C594.454 71.4622 566.466 59.4141 534.591 53.705C502.66 47.9859 466.496 48.5652 435.925 59.3869L435.878 59.4038L435.831 59.4238C435.475 59.5776 435.176 59.666 434.795 59.7768L434.777 59.782C434.408 59.8892 433.965 60.0183 433.443 60.241C410.512 68.8492 396.433 81.4399 385.51 93.3881L385.508 93.3908C350.845 131.494 330.039 180.911 348.938 231.493C350.329 235.571 348.708 240.17 344.288 245.757L344.285 245.761C339.362 252.026 331.23 258.775 321.758 265.79C316.298 269.834 310.481 273.903 304.633 277.994C300.317 281.014 295.984 284.045 291.766 287.086C281.908 294.193 272.766 301.292 266.463 308.11C260.244 314.835 256.358 321.748 258.083 328.364C262.389 345.257 271.566 361.201 282.765 376.639C291.488 388.666 301.496 400.46 311.445 412.185C314.26 415.502 317.07 418.814 319.845 422.124C345.141 452.297 367.433 482.26 365.906 516.028C364.605 544.748 370.012 570.969 377.076 596.769C379.334 605.013 381.755 613.198 384.182 621.405C389.371 638.948 394.59 656.591 398.306 675.136L398.308 675.148C398.964 678.284 398.544 682.047 397.189 686.378C395.839 690.698 393.595 695.471 390.733 700.572C385.44 710.009 378.142 720.387 370.761 730.884C370.154 731.748 369.546 732.612 368.939 733.476C360.982 744.806 353.109 756.198 347.925 766.434C345.331 771.555 343.376 776.452 342.431 780.96C341.485 785.466 341.527 789.69 343.058 793.375L343.06 793.379C350.199 810.421 364.119 823.25 381.942 832.983C399.758 842.713 421.57 849.405 444.678 854.142C483.455 862.091 526.141 864.582 560.137 866.566C566.644 866.946 572.832 867.307 578.614 867.684C609.515 869.728 640.548 866.425 670.708 861.016C711.271 853.767 750.665 837.841 778.395 812.384C806.182 786.875 822.207 751.826 815.95 706.615C810.101 664.047 806.894 629.819 821.621 597.171L821.624 597.164L821.627 597.157C827.801 583.087 837.38 568.988 851.303 554.475L851.308 554.47C863.808 541.325 877.718 529.419 891.662 517.484C892.957 516.375 894.252 515.267 895.547 514.157C910.752 501.119 925.834 487.915 938.826 472.992C957.092 452.313 972.372 425.289 966.442 397.31Z" stroke="#527D77" stroke-width="3" stroke-miterlimit="10"/>
<path d="M816.997 267.474L816.999 267.475C825.274 271.283 834.854 275.337 845.189 279.711C868.51 289.579 895.675 301.074 920.364 315.049C955.97 335.202 987.072 360.843 994.301 394.912M816.997 267.474L963.495 477.113M816.997 267.474C808.776 263.7 800.168 259.917 791.347 256.04C774.294 248.546 756.441 240.701 739.026 231.883C712.637 218.52 687.452 203.016 667.982 183.361C660.835 175.92 654.316 168.157 648.951 159.398L648.947 159.391M816.997 267.474L648.947 159.391M994.301 394.912L992.847 395.221L994.301 394.91C994.301 394.911 994.301 394.911 994.301 394.912ZM994.301 394.912C1000.73 425.049 983.474 454.741 963.495 477.113M963.495 477.113C963.496 477.112 963.497 477.111 963.498 477.11L962.378 476.117L963.494 477.115C963.495 477.114 963.495 477.114 963.495 477.113ZM648.947 159.391L648.943 159.385M648.947 159.391L648.943 159.385M648.943 159.385C640.143 145.351 636.128 130.539 632.058 115.52C631.347 112.898 630.634 110.27 629.895 107.638C624.934 89.9944 618.762 72.3697 603.427 56.3974C588.2 40.5033 557.707 27.4244 522.946 21.2235C488.128 15.0127 448.693 15.6392 415.402 27.4754L415.355 27.492M648.943 159.385L415.355 27.492M415.355 27.492L415.31 27.5116M415.355 27.492L415.31 27.5116M415.31 27.5116C414.359 27.9222 413.686 28.1978 413.043 28.2531L412.838 28.2708M415.31 27.5116L412.838 28.2708M412.838 28.2708L412.645 28.3434M412.838 28.2708L412.645 28.3434M412.645 28.3434C387.582 37.7572 372.339 51.388 360.258 64.3688L360.252 64.3759M412.645 28.3434L360.252 64.3759M360.252 64.3759C322.414 105.566 299.788 159.203 320.336 214.328L320.34 214.338M360.252 64.3759L320.34 214.338M320.34 214.338L320.344 214.349M320.34 214.338L320.344 214.349M320.344 214.349C322.027 218.665 320.209 223.872 315.196 229.83L315.187 229.84M320.344 214.349L315.187 229.84M315.187 229.84L315.178 229.851M315.187 229.84L315.178 229.851M315.178 229.851C309.677 236.638 300.656 243.935 290.183 251.504C284.166 255.853 277.758 260.231 271.32 264.629C266.533 267.9 261.729 271.183 257.055 274.473C246.174 282.136 236.094 289.782 229.138 297.121C222.273 304.365 217.998 311.782 219.846 318.872L219.847 318.876M315.178 229.851L219.847 318.876M219.847 318.876C224.662 337.131 234.792 354.378 247.125 371.093C256.662 384.019 267.575 396.703 278.428 409.316C281.6 413.002 284.766 416.682 287.892 420.361C315.667 453.05 340.116 485.551 338.367 522.135C336.827 553.527 342.673 582.129 350.406 610.253C352.979 619.611 355.754 628.895 358.538 638.208C364.141 656.957 369.78 675.823 373.877 695.641C374.561 699.084 374.058 703.209 372.536 707.943C371.017 712.668 368.521 717.885 365.354 723.457C359.518 733.725 351.511 745.016 343.413 756.433C342.714 757.419 342.015 758.406 341.315 759.393C332.551 771.767 323.891 784.2 318.173 795.368C315.313 800.956 313.154 806.291 312.096 811.195C311.039 816.098 311.061 820.68 312.695 824.67L312.699 824.679M219.847 318.876L312.699 824.679M312.699 824.679C320.436 843.233 335.626 857.181 355.113 867.75C374.596 878.316 398.473 885.56 423.776 890.673C465.946 899.194 512.338 901.841 549.362 903.953C556.753 904.374 563.77 904.775 570.306 905.196L570.308 905.196M312.699 824.679L570.308 905.196M570.308 905.196C604.01 907.308 637.849 904.079 670.782 898.119C714.876 890.253 757.821 873.009 788.087 845.307C818.411 817.552 835.956 779.331 829.172 729.8C823.004 683.522 819.58 646.808 835.288 610.949L835.289 610.945M570.308 905.196L835.289 610.945M835.289 610.945C841.972 595.593 852.395 580.489 867.476 564.94L835.289 610.945Z" stroke="#527D77" stroke-width="3" stroke-miterlimit="10"/>
<path d="M830.219 254.484L830.223 254.486C839.142 258.573 849.485 262.924 860.653 267.623C885.863 278.229 915.278 290.604 942.01 305.701C980.563 327.473 1014.19 355.237 1021.83 392.24C1028.8 425.138 1009.87 457.156 988.168 481.232C972.58 498.556 954.796 513.86 936.887 529.003C935.532 530.148 934.176 531.293 932.821 532.437C916.236 546.441 899.674 560.425 884.641 575.933C868.433 592.82 857.465 608.91 849.955 625.595C832.914 664.064 836.27 703.593 843.064 753.546M830.219 254.484L841.579 753.755M830.219 254.484C821.462 250.504 812.287 246.512 802.875 242.417C784.284 234.329 764.772 225.839 745.747 216.256C717.121 201.837 689.797 185.035 668.776 163.643M830.219 254.484L648.026 137.936M843.064 753.546C843.065 753.548 843.065 753.55 843.065 753.553L841.579 753.755M843.064 753.546C843.064 753.545 843.064 753.545 843.064 753.544L841.579 753.755M843.064 753.546C850.675 807.219 831.679 848.53 798.815 878.493C766.01 908.401 719.438 926.969 671.813 935.45M841.579 753.755C856.652 860.041 766.45 917.074 671.548 933.974C635.624 940.496 599.151 944.258 562.765 941.777C554.851 941.239 546.285 940.737 537.232 940.208C449.05 935.048 314.591 927.182 284.705 855.942C277.97 839.83 298.072 811.639 318.015 783.671C336.447 757.822 354.743 732.163 351.59 716.408M671.813 935.45C671.814 935.45 671.815 935.45 671.816 935.449L671.548 933.978L671.811 935.45C671.811 935.45 671.812 935.45 671.813 935.45ZM671.813 935.45C635.82 941.984 599.215 945.766 562.663 943.273C554.774 942.737 546.228 942.237 537.188 941.708C497.622 939.394 448.608 936.527 403.923 927.62C376.465 922.147 350.545 914.378 329.39 903.002C308.229 891.623 291.735 876.579 283.321 856.523L283.321 856.521C281.541 852.264 281.513 847.351 282.661 842.072C283.81 836.791 286.16 831.031 289.278 824.985C295.512 812.902 304.959 799.416 314.527 785.979C315.279 784.924 316.032 783.868 316.783 782.814C325.634 770.401 334.397 758.111 340.784 746.944C344.246 740.891 346.977 735.221 348.642 730.087C350.311 724.942 350.869 720.453 350.119 716.706M350.119 716.706L351.59 716.408M350.119 716.706C350.119 716.705 350.119 716.704 350.119 716.703L351.59 716.408M350.119 716.706C345.727 694.999 339.548 674.317 333.403 653.747C330.454 643.877 327.513 634.033 324.781 624.114C316.374 593.593 310.005 562.539 311.783 528.472L311.783 528.47C312.837 508.718 306.713 490.071 296.499 471.935C286.277 453.784 272.011 436.231 256.881 418.673C253.438 414.678 249.95 410.681 246.456 406.679C234.627 393.128 222.734 379.503 212.336 365.608C198.859 347.598 187.791 329.007 182.539 309.306L182.538 309.3C181.552 305.545 182.242 301.684 184.079 297.84C185.908 294.01 188.912 290.113 192.703 286.19C200.282 278.347 211.259 270.148 223.124 261.914C228.221 258.376 233.465 254.844 238.694 251.321C245.714 246.592 252.706 241.883 259.274 237.207C270.71 229.066 280.597 221.209 286.679 213.902M351.59 716.408C347.184 694.636 340.972 673.84 334.816 653.233C322.772 612.918 310.944 573.324 313.281 528.55L287.841 214.85M286.679 213.902C286.676 213.906 286.673 213.91 286.669 213.914L287.841 214.85M286.679 213.902C286.682 213.898 286.685 213.895 286.688 213.891L287.841 214.85M286.679 213.902C291.98 207.262 294.102 202.018 292.342 197.08M287.841 214.85C293.19 208.153 295.806 202.315 293.752 196.567M292.342 197.08C292.344 197.083 292.345 197.086 292.346 197.09L293.752 196.567M292.342 197.08C270.162 137.417 294.952 79.8577 335.607 35.3166L335.612 35.3109C348.832 20.9766 365.542 6.2881 392.401 -3.90317L392.597 -3.97732L392.805 -3.99524C393.447 -4.05052 394.121 -4.32621 395.071 -4.73677L395.12 -4.75751L395.169 -4.77487C431.344 -17.4807 473.969 -18.1489 511.598 -11.4393C549.172 -4.73927 582.089 9.37797 598.672 26.5539C615.201 43.6729 621.886 62.7378 627.286 81.8618C628.083 84.685 628.852 87.5059 629.618 90.321C634.063 106.634 638.453 122.749 648.026 137.936M292.342 197.08C292.341 197.077 292.34 197.074 292.339 197.072L293.752 196.567M293.752 196.567L648.026 137.936M648.026 137.936C648.025 137.933 648.023 137.931 648.022 137.928L646.762 138.743L648.031 137.943C648.03 137.941 648.028 137.938 648.026 137.936ZM648.026 137.936C654.077 147.288 660.972 155.651 668.776 163.643M668.776 163.643L667.706 164.694L668.779 163.646C668.778 163.645 668.777 163.644 668.776 163.643Z" stroke="#527D77" stroke-width="3" stroke-miterlimit="10"/>
<path d="M843.474 241.806C833.69 237.347 823.417 232.877 812.874 228.29C793.235 219.747 772.657 210.794 752.555 200.739C721.698 185.304 692.172 167.366 669.314 144.57C660.841 136.016 653.247 126.778 646.833 116.832C636.507 100.527 631.799 83.2026 627.035 65.6678C626.209 62.6268 625.381 59.5795 624.521 56.5301C618.724 35.9578 611.525 15.4543 593.636 -2.95165C575.862 -21.2711 540.441 -36.4193 499.98 -43.611C459.465 -50.8124 413.569 -50.0972 374.673 -36.3768L374.624 -36.3596L374.577 -36.3393C374.162 -36.1601 373.667 -35.9707 373.13 -35.7663C372.624 -35.5732 372.078 -35.3658 371.601 -35.161C342.615 -24.4741 324.751 -8.75273 310.404 6.92169C266.583 54.5413 239.997 116.62 263.758 180.199C265.56 185.475 263.441 191.36 257.599 198.302C251.019 206.122 240.28 214.525 227.857 223.227C220.769 228.193 213.223 233.195 205.644 238.22C199.918 242.016 194.174 245.825 188.593 249.639C175.706 258.448 163.793 267.225 155.584 275.635C151.478 279.841 148.234 284.019 146.268 288.127C144.296 292.251 143.576 296.388 144.666 300.41L144.667 300.413C150.428 321.474 162.447 341.366 177.057 360.656C188.244 375.425 201.012 389.918 213.717 404.34C217.597 408.744 221.47 413.141 225.292 417.538C241.662 436.372 257.091 455.219 268.139 474.715C279.179 494.198 285.793 514.243 284.634 535.483L284.634 535.483C282.63 572.378 289.516 605.806 298.627 638.607C301.587 649.264 304.774 659.835 307.971 670.433C314.634 692.53 321.334 714.746 326.08 738.109C326.893 742.16 326.28 747.008 324.465 752.554C322.653 758.088 319.683 764.2 315.923 770.723C308.974 782.779 299.434 796.054 289.802 809.457C289.004 810.567 288.206 811.677 287.409 812.788C277.014 827.271 266.751 841.8 259.96 854.818C256.562 861.33 253.998 867.529 252.73 873.208C251.462 878.885 251.465 884.156 253.347 888.718L253.35 888.724C262.362 910.292 280.124 926.455 302.95 938.665C325.771 950.872 353.755 959.184 383.407 965.014C432.001 974.568 485.333 977.495 528.153 979.846C537.572 980.363 546.482 980.852 554.721 981.378C594.082 983.94 633.47 979.919 672.244 973.146L672.248 973.145C723.407 964.048 773.524 944.083 808.864 911.931C844.263 879.725 864.787 835.321 856.676 777.636C849.252 723.995 845.657 681.682 864.028 640.606C872.083 622.924 883.851 605.21 901.511 587.275L901.52 587.266L901.529 587.256C918.206 569.721 936.702 554.097 955.204 538.468C955.979 537.813 956.754 537.158 957.528 536.504C976.779 520.235 995.951 503.877 1012.84 485.353C1036.58 459.53 1056.84 424.906 1049.69 389.845L1049.68 389.843C1041.5 350.08 1005.35 320.194 963.849 296.766C934.748 280.338 902.701 266.925 875.35 255.478C863.67 250.589 852.846 246.059 843.474 241.806ZM843.474 241.806L842.851 243.171M843.474 241.806C843.473 241.805 843.472 241.805 843.471 241.805L842.851 243.171M842.851 243.171C833.116 238.733 822.866 234.274 812.334 229.692C762.471 207.998 706.268 183.546 668.248 145.625M842.851 243.171C852.296 247.457 863.166 252.006 874.876 256.907C941.228 284.676 1034.55 323.732 1048.22 390.145L668.248 145.625M668.248 145.625C659.71 137.005 652.048 127.686 645.57 117.641C635.11 101.128 630.338 83.5579 625.577 66.0246C619.168 42.4269 612.777 18.895 592.559 -1.90712L668.248 145.625Z" stroke="#527D77" stroke-width="3" stroke-miterlimit="10"/>
<path d="M669.795 124.876L669.796 124.876C694.362 149.399 726.03 168.636 759.084 185.13C780.892 196.012 803.216 205.661 824.475 214.849C835.469 219.601 846.179 224.229 856.385 228.842M669.795 124.876L855.768 230.209M669.795 124.876C660.661 115.765 652.7 105.934 645.578 95.0973C634.27 77.5318 629.18 58.8265 624.031 39.9032C623.189 36.8063 622.344 33.7036 621.471 30.5991C615.277 8.58265 607.642 -13.3661 588.55 -33.0729C569.57 -52.6955 531.646 -68.7967 488.306 -76.4023C444.911 -84.0177 395.756 -83.1769 354.132 -68.6009C353.501 -68.3842 352.952 -68.1748 352.427 -67.9745C351.897 -67.7724 351.39 -67.5795 350.811 -67.3807L350.795 -67.3751M669.795 124.876L350.795 -67.3751M856.385 228.842C856.385 228.842 856.386 228.842 856.386 228.842L855.768 230.209M856.385 228.842C856.385 228.842 856.384 228.841 856.384 228.841L855.768 230.209M856.385 228.842C866.332 233.318 877.806 238.084 890.187 243.227C919.599 255.443 954.127 269.785 985.456 287.421C1029.94 312.463 1068.62 344.472 1077.21 387.165M855.768 230.209C865.786 234.718 877.306 239.502 889.715 244.656C960.891 274.219 1061.35 315.945 1075.74 387.464M1077.21 387.165L1075.74 387.464M1077.21 387.165C1084.92 424.99 1062.98 461.942 1037.51 489.471M1077.21 387.165C1077.21 387.166 1077.21 387.167 1077.21 387.169L1075.74 387.464M1075.74 387.464L1037.51 489.471M1037.51 489.471C1019.32 509.199 998.752 526.535 978.056 543.71C976.698 544.836 975.34 545.962 973.983 547.088C954.616 563.143 935.265 579.185 917.641 597.109C898.841 616.397 886.227 635.122 877.663 654.087M1037.51 489.471L877.663 654.087M350.795 -67.3751L350.779 -67.3692M350.795 -67.3751L350.779 -67.3692M350.779 -67.3692C319.66 -55.8768 300.628 -39.1145 285.424 -22.4216C238.432 28.2843 210.029 94.5787 235.439 162.698L235.443 162.708M350.779 -67.3692L235.443 162.708M235.443 162.708C237.541 168.213 234.939 174.73 228.767 182.067C221.606 190.408 209.999 199.373 196.61 208.649C188.97 213.943 180.839 219.278 172.677 224.634C166.511 228.68 160.327 232.738 154.323 236.799C140.453 246.179 127.643 255.509 118.81 264.424C114.393 268.881 110.904 273.3 108.785 277.633C106.659 281.981 105.873 286.333 107.022 290.554L107.024 290.564M235.443 162.708L107.024 290.564M107.024 290.564C113.3 313.061 126.274 334.293 142.018 354.873C154.056 370.608 167.776 386.038 181.427 401.39C185.621 406.107 189.809 410.816 193.939 415.525C211.546 435.598 228.133 455.68 240.002 476.455C251.862 497.215 258.958 518.58 257.687 541.229C255.445 580.796 262.776 616.681 272.522 651.884C275.727 663.46 279.186 674.941 282.653 686.452C289.753 710.019 296.89 733.71 301.959 758.582C302.838 762.936 302.165 768.143 300.194 774.092C298.228 780.028 295.009 786.583 290.939 793.576C283.432 806.474 273.138 820.678 262.746 835.019C261.862 836.238 260.978 837.458 260.095 838.678C248.855 854.208 237.765 869.783 230.429 883.735C226.76 890.714 223.993 897.353 222.627 903.43C221.262 909.505 221.27 915.135 223.298 919.999C232.908 943.076 251.939 960.359 276.425 973.404C300.906 986.448 330.945 995.314 362.773 1001.52C414.67 1011.64 471.58 1014.74 517.296 1017.22C527.637 1017.78 537.406 1018.32 546.414 1018.89L546.416 1018.89M107.024 290.564L546.416 1018.89M546.416 1018.89C588.586 1021.52 631.067 1017.23 672.295 1009.94L672.296 1009.94M546.416 1018.89L672.296 1009.94M672.296 1009.94C727.141 1000.21 780.809 978.929 818.608 944.536M672.296 1009.94L818.608 944.536M818.608 944.536C856.468 910.089 878.356 862.525 869.561 800.534M818.608 944.536L869.561 800.534M869.561 800.534C861.536 743.526 857.982 698.085 877.663 654.087M869.561 800.534L877.663 654.087" stroke="#527D77" stroke-width="3" stroke-miterlimit="10"/>
<path d="M1062.18 493.588L1062.18 493.589C1042.7 514.518 1020.74 532.909 998.813 551.16L997.192 552.509C975.788 570.326 954.476 588.065 935.435 608.039L935.427 608.047L935.42 608.055C915.459 628.381 901.999 648.113 892.926 668.362C872.217 714.947 875.703 763.208 884.356 823.894L884.357 823.897C893.666 890.054 870.251 940.712 829.852 977.365C789.514 1013.96 732.295 1036.57 673.918 1046.91C673.918 1046.91 673.918 1046.91 673.918 1046.91L673.656 1045.43C629.738 1053.26 584.598 1057.77 539.747 1054.77L1062.18 493.588ZM1062.18 493.588C1089.66 464.016 1112.96 424.767 1105.07 384.777L1105.07 384.771C1095.93 339.317 1054.73 305.186 1007.33 278.483C973.817 259.6 936.882 244.272 905.504 231.249C892.482 225.844 880.417 220.837 869.951 216.138L1062.18 493.588ZM506.187 1054.31C518.109 1054.96 529.345 1055.59 539.647 1056.27L644.06 74.7379C631.859 55.7284 626.384 35.5665 620.926 15.469C613.658 -11.2971 606.42 -37.9488 583.367 -61.6118C543.651 -102.786 423.137 -129.834 335.032 -99.1755L334.544 -100.594L334.541 -100.593C334.54 -100.593 334.539 -100.592 334.539 -100.592L334.504 -100.58C333.339 -100.18 332.1 -99.7546 331.149 -99.3469C297.937 -87.0489 277.757 -69.2575 261.405 -51.5412L261.404 -51.5403C211.589 2.51847 181.022 72.738 208.064 145.396C210.239 151.541 207.624 158.391 200.61 166.055L200.595 166.071L200.582 166.087C192.85 175.023 180.357 184.573 165.973 194.419C157.669 200.102 148.822 205.827 139.953 211.566C133.441 215.781 126.916 220.003 120.585 224.223C105.709 234.138 91.9875 243.984 82.5433 253.394C77.8204 258.1 74.0989 262.762 71.8488 267.335C69.5905 271.925 68.7743 276.514 70.0261 280.966C76.7389 304.909 90.6485 327.484 107.538 349.359C120.437 366.067 135.139 382.442 149.766 398.736C154.282 403.765 158.79 408.787 163.235 413.808C182.12 435.135 199.905 456.477 212.607 478.573C225.301 500.654 232.865 523.398 231.413 547.539L231.413 547.541C228.933 589.782 236.78 628.042 247.233 665.562C250.666 677.885 254.372 690.108 258.089 702.362C265.71 727.492 273.371 752.755 278.794 779.287C279.738 783.945 279.009 789.511 276.892 795.861C274.779 802.197 271.324 809.192 266.957 816.652C258.895 830.426 247.839 845.598 236.687 860.902C235.753 862.183 234.819 863.465 233.886 864.747C221.838 881.302 209.958 897.89 202.104 912.729C198.175 920.151 195.217 927.203 193.759 933.648C192.302 940.09 192.317 946.043 194.486 951.171C204.773 975.75 225.107 994.127 251.27 1007.98C277.429 1021.84 309.521 1031.23 343.523 1037.79C398.069 1048.33 457.786 1051.63 506.187 1054.31Z" stroke="#527D77" stroke-width="3" stroke-miterlimit="10"/>
<path d="M897.578 847.079L897.578 847.081C907.557 917.392 882.613 971.145 839.64 1010.05C796.729 1048.89 735.89 1072.9 673.996 1084.01C627.244 1092.4 578.881 1097.2 530.75 1094.14L530.746 1094.14C519.636 1093.4 507.479 1092.74 494.557 1092.02C443.383 1089.21 380.194 1085.73 322.413 1074.65C286.216 1067.71 252.04 1057.77 224.196 1043.08C196.349 1028.39 174.727 1008.9 163.843 982.808C161.571 977.412 161.584 971.126 163.162 964.309C164.741 957.487 167.915 950.009 172.123 942.127C180.536 926.369 193.231 908.728 206.103 891.109C207.048 889.816 207.993 888.524 208.938 887.232C220.903 870.872 232.777 854.638 241.426 839.911C246.09 831.97 249.782 824.522 252.042 817.777C254.306 811.018 255.09 805.088 254.082 800.125C248.335 772.081 240.236 745.342 232.178 718.737C228.191 705.573 224.213 692.442 220.536 679.201C209.448 639.279 201.155 598.563 203.874 553.651L205.371 553.741L203.874 553.65C205.431 528.021 197.359 503.88 183.814 480.455C170.261 457.015 151.283 434.382 131.14 411.779C126.366 406.423 121.526 401.068 116.679 395.704C101.107 378.474 85.464 361.166 71.7365 343.513C53.7286 320.357 38.906 296.476 31.7628 271.165C30.146 265.459 31.8004 259.541 35.5254 253.634C39.2487 247.729 45.1511 241.65 52.4021 235.485C66.7336 223.301 86.6754 210.501 106.469 197.797L107.185 197.337C127.272 184.444 147.132 171.659 161.064 159.603C168.032 153.573 173.422 147.804 176.62 142.378C179.808 136.967 180.72 132.077 179.094 127.625C150.748 50.7112 183.135 -23.7209 236.12 -80.8629C253.333 -99.6006 274.989 -118.454 310.328 -131.555C357.476 -149.112 413.845 -150.494 463.748 -141.998C513.596 -133.51 557.335 -115.104 579.046 -92.7524C600.7 -70.4602 609.356 -45.7159 616.38 -20.8458C617.376 -17.3203 618.339 -13.7954 619.3 -10.2759C625.135 11.0927 630.917 32.268 643.766 52.2315L643.767 52.2332C668.595 90.9263 708.236 119.619 751.812 143.178C782.556 159.8 815.129 173.804 845.749 186.969C858.554 192.474 871.017 197.833 882.863 203.174M897.578 847.079L882.248 204.543M897.578 847.079C890.951 800.878 887.198 761.58 893.757 724.904C900.303 688.294 917.145 654.198 951.913 618.481L897.578 847.079ZM882.863 203.174C882.864 203.175 882.864 203.175 882.865 203.175L882.248 204.543M882.863 203.174C882.862 203.174 882.862 203.174 882.862 203.174L882.248 204.543M882.863 203.174C893.949 208.142 906.752 213.441 920.583 219.166C953.898 232.957 993.183 249.218 1028.84 269.265C1079.26 297.616 1123.06 333.864 1132.59 382.095L1131.12 382.386C1115.1 301.305 1000.55 253.89 920.111 220.596C906.251 214.859 893.404 209.541 882.248 204.543" stroke="#527D77" stroke-width="3" stroke-miterlimit="10"/>
</svg>
