<svg width="1351" height="602" viewBox="0 0 1351 602" fill="none" xmlns="http://www.w3.org/2000/svg">
<path d="M677.917 558.824V122.147" stroke="#BFBFBF"/>
<path d="M677.917 558.824V122.147" stroke="#E1E1E1"/>
<path d="M665.702 561.877L619.897 125.201" stroke="#BFBFBF"/>
<path d="M665.702 561.877L619.897 125.201" stroke="#E1E1E1"/>
<path d="M653.488 561.877L561.877 134.362" stroke="#BFBFBF"/>
<path d="M653.488 561.877L561.877 134.362" stroke="#E1E1E1"/>
<path d="M641.273 564.931L506.911 149.63" stroke="#BFBFBF"/>
<path d="M641.273 564.931L506.911 149.63" stroke="#E1E1E1"/>
<path d="M629.058 571.038L451.945 171.006" stroke="#BFBFBF"/>
<path d="M629.058 571.038L451.945 171.006" stroke="#E1E1E1"/>
<path d="M619.897 574.092L400.032 195.436" stroke="#BFBFBF"/>
<path d="M619.897 574.092L400.032 195.436" stroke="#E1E1E1"/>
<path d="M610.736 580.199L354.227 229.026" stroke="#BFBFBF"/>
<path d="M610.736 580.199L354.227 229.026" stroke="#E1E1E1"/>
<path d="M601.575 589.36L308.422 265.67" stroke="#BFBFBF"/>
<path d="M601.575 589.36L308.422 265.67" stroke="#E1E1E1"/>
<path d="M592.414 598.521L268.724 305.368" stroke="#BFBFBF"/>
<path d="M592.414 598.521L268.724 305.368" stroke="#E1E1E1"/>
<path d="M583.253 607.683L232.08 351.173" stroke="#BFBFBF"/>
<path d="M583.253 607.683L232.08 351.173" stroke="#E1E1E1"/>
<path d="M577.146 616.844L198.489 396.979" stroke="#BFBFBF"/>
<path d="M577.146 616.844L198.489 396.979" stroke="#E1E1E1"/>
<path d="M574.092 626.005L174.06 448.891" stroke="#BFBFBF"/>
<path d="M574.092 626.005L174.06 448.891" stroke="#E1E1E1"/>
<path d="M567.985 638.219L152.684 503.857" stroke="#BFBFBF"/>
<path d="M567.985 638.219L152.684 503.857" stroke="#E1E1E1"/>
<path d="M564.931 650.434L137.416 558.824" stroke="#BFBFBF"/>
<path d="M564.931 650.434L137.416 558.824" stroke="#E1E1E1"/>
<path d="M787.85 650.434L1215.37 558.824" stroke="#BFBFBF"/>
<path d="M787.85 650.434L1215.37 558.824" stroke="#E1E1E1"/>
<path d="M784.796 638.219L1200.1 503.857" stroke="#BFBFBF"/>
<path d="M784.796 638.219L1200.1 503.857" stroke="#E1E1E1"/>
<path d="M781.742 626.005L1178.72 448.891" stroke="#BFBFBF"/>
<path d="M781.742 626.005L1178.72 448.891" stroke="#E1E1E1"/>
<path d="M775.635 616.844L1154.29 396.979" stroke="#BFBFBF"/>
<path d="M775.635 616.844L1154.29 396.979" stroke="#E1E1E1"/>
<path d="M769.527 607.683L1123.75 351.173" stroke="#BFBFBF"/>
<path d="M769.527 607.683L1123.75 351.173" stroke="#E1E1E1"/>
<path d="M760.366 598.521L1087.11 305.368" stroke="#BFBFBF"/>
<path d="M760.366 598.521L1087.11 305.368" stroke="#E1E1E1"/>
<path d="M754.259 589.36L1044.36 265.67" stroke="#BFBFBF"/>
<path d="M754.259 589.36L1044.36 265.67" stroke="#E1E1E1"/>
<path d="M745.098 580.199L1001.61 229.026" stroke="#BFBFBF"/>
<path d="M745.098 580.199L1001.61 229.026" stroke="#E1E1E1"/>
<path d="M732.883 574.092L952.748 195.436" stroke="#BFBFBF"/>
<path d="M732.883 574.092L952.748 195.436" stroke="#E1E1E1"/>
<path d="M723.722 571.038L900.836 171.006" stroke="#BFBFBF"/>
<path d="M723.722 571.038L900.836 171.006" stroke="#E1E1E1"/>
<path d="M711.508 564.931L845.87 149.63" stroke="#BFBFBF"/>
<path d="M711.508 564.931L845.87 149.63" stroke="#E1E1E1"/>
<path d="M699.293 561.877L790.903 134.362" stroke="#BFBFBF"/>
<path d="M699.293 561.877L790.903 134.362" stroke="#E1E1E1"/>
<path d="M690.132 561.877L732.883 125.201" stroke="#BFBFBF"/>
<path d="M690.132 561.877L732.883 125.201" stroke="#E1E1E1"/>
<path d="M706.179 564.85L819.199 143.053" stroke="#BFBFBF"/>
<path d="M693.591 564.639L762.366 130.986" stroke="#BFBFBF"/>
<path d="M681.792 561.477L703.952 124.819" stroke="#BFBFBF"/>
<path d="M669.203 561.266L646.907 125.34" stroke="#BFBFBF"/>
<path d="M655.824 564.003L588.281 131.762" stroke="#BFBFBF"/>
<path d="M646.185 564.582L531.815 141.923" stroke="#BFBFBF"/>
<path d="M635.755 568.11L478.876 162.513" stroke="#BFBFBF"/>
<path d="M624.535 574.588L425.148 186.054" stroke="#BFBFBF"/>
<path d="M613.315 581.066L376.528 214.124" stroke="#BFBFBF"/>
<path d="M602.095 587.544L329.277 248.884" stroke="#BFBFBF"/>
<path d="M593.825 594.812L284.976 284.435" stroke="#BFBFBF"/>
<path d="M588.505 602.87L247.943 328.256" stroke="#BFBFBF"/>
<path d="M579.444 613.088L213.069 375.817" stroke="#BFBFBF"/>
<path d="M573.333 624.096L184.095 424.958" stroke="#BFBFBF"/>
<path d="M570.171 635.895L160.229 478.63" stroke="#BFBFBF"/>
<path d="M564.06 646.903L142.263 533.883" stroke="#BFBFBF"/>
<path d="M563.848 659.492L130.196 590.716" stroke="#BFBFBF"/>
<path d="M561.477 668.341L124.819 646.181" stroke="#BFBFBF"/>
<path d="M561.266 680.93L125.341 703.226" stroke="#BFBFBF"/>
<path d="M564.004 694.309L131.762 761.851" stroke="#BFBFBF"/>
<path d="M788.655 681.792L1225.31 703.952" stroke="#BFBFBF"/>
<path d="M788.867 669.203L1224.79 646.907" stroke="#BFBFBF"/>
<path d="M789.079 656.614L1218.37 588.281" stroke="#BFBFBF"/>
<path d="M785.551 646.185L1208.21 531.815" stroke="#BFBFBF"/>
<path d="M782.023 635.755L1190.57 479.667" stroke="#BFBFBF"/>
<path d="M775.545 624.535L1167.03 425.938" stroke="#BFBFBF"/>
<path d="M772.016 614.106L1136.01 376.528" stroke="#BFBFBF"/>
<path d="M765.539 602.886L1104.2 330.068" stroke="#BFBFBF"/>
<path d="M755.321 593.825L1065.7 284.976" stroke="#BFBFBF"/>
<path d="M747.262 588.504L1021.88 247.943" stroke="#BFBFBF"/>
<path d="M737.045 579.444L974.316 213.069" stroke="#BFBFBF"/>
<path d="M726.036 573.333L925.174 184.095" stroke="#BFBFBF"/>
<path d="M717.188 570.961L871.503 160.229" stroke="#BFBFBF"/>
</svg>
