<svg width="37" height="37" viewBox="0 0 37 37" fill="none" xmlns="http://www.w3.org/2000/svg">
<path d="M18.6087 36.2188C8.88065 36.2188 0.998749 28.3369 0.998749 18.6087C0.998749 8.88065 8.88065 0.998749 18.6087 0.998749C28.3369 0.998749 36.2188 8.88065 36.2188 18.6087C36.2188 28.3369 28.3369 36.2188 18.6087 36.2188ZM20.6609 26.022L15.2998 20.881H28.2658C29.2103 20.881 29.97 20.1212 29.97 19.1768L29.97 18.0407C29.97 17.0963 29.2103 16.3365 28.2658 16.3365L15.2998 16.3365L20.6609 11.1955C21.3497 10.5351 21.3639 9.43451 20.6893 8.75993L19.9082 7.98594C19.2407 7.31847 18.1614 7.31847 17.501 7.98594L8.07825 17.4016C7.41078 18.0691 7.41078 19.1484 8.07825 19.8088L17.501 29.2387C18.1685 29.9061 19.2478 29.9061 19.9082 29.2387L20.6893 28.4647C21.3639 27.783 21.3497 26.6824 20.6609 26.022Z" fill="black"/>
</svg>
